<?xml version="1.0" standalone="no"?>
<!DOCTYPE svg PUBLIC "-//W3C//DTD SVG 20010904//EN"
 "http://www.w3.org/TR/2001/REC-SVG-20010904/DTD/svg10.dtd">
<svg version="1.0" xmlns="http://www.w3.org/2000/svg"
 viewBox="0 0 512.000000 512.000000"
 preserveAspectRatio="xMidYMid meet">
<metadata>
Created by potrace 1.16, written by Peter Selinger 2001-2019
</metadata>
<g transform="translate(0.000000,512.000000) scale(0.100000,-0.100000)"
fill="#ff2929" stroke="none">
<path d="M1750 5102 c-76 -28 -123 -58 -173 -109 -91 -90 -117 -164 -126 -350
-9 -201 12 -187 -289 -193 -213 -5 -243 -8 -292 -28 -113 -45 -203 -138 -252
-261 -21 -53 -22 -70 -23 -329 l0 -274 28 -24 28 -24 1909 0 1909 0 28 24 28
24 0 274 c-1 259 -2 276 -23 329 -49 123 -139 216 -252 261 -49 20 -79 23
-292 28 -301 6 -280 -8 -289 193 -7 142 -15 181 -57 263 -24 48 -104 127 -158
158 -102 58 -71 56 -898 55 -686 0 -765 -2 -806 -17z m1506 -342 c47 -18 53
-36 53 -150 0 -114 -6 -132 -53 -150 -38 -14 -1354 -14 -1392 0 -47 18 -53 36
-53 150 0 112 6 132 50 149 34 14 1359 14 1395 1z"/>
<path d="M986 3269 l-26 -31 0 -1416 c0 -1553 -2 -1499 59 -1606 42 -72 118
-141 199 -179 l67 -32 1275 0 1275 0 68 32 c128 61 222 180 247 312 15 81 14
2875 -2 2904 -6 12 -18 27 -27 34 -12 10 -363 12 -1563 13 l-1546 0 -26 -31z
m778 -372 c25 -14 48 -39 63 -66 l23 -44 0 -1104 c0 -1214 4 -1141 -63 -1200
-91 -80 -233 -36 -266 82 -8 28 -11 362 -11 1120 1 1144 0 1125 47 1177 54 61
137 75 207 35z m882 -2 c28 -17 49 -39 63 -68 l21 -44 -2 -1116 -3 -1115 -31
-39 c-77 -97 -191 -97 -268 0 l-31 39 0 1127 0 1127 25 37 c53 77 146 99 226
52z m862 11 c37 -19 68 -55 87 -98 13 -33 15 -165 15 -1120 0 -759 -3 -1095
-11 -1123 -33 -118 -175 -162 -266 -82 -67 59 -63 -14 -63 1200 l0 1104 23 44
c41 76 143 112 215 75z"/>
</g>
</svg>
