<?xml version="1.0" standalone="no"?>
<!DOCTYPE svg PUBLIC "-//W3C//DTD SVG 20010904//EN"
 "http://www.w3.org/TR/2001/REC-SVG-20010904/DTD/svg10.dtd">
<svg version="1.0" xmlns="http://www.w3.org/2000/svg"
 width="30" viewBox="0 0 512.000000 512.000000"
 preserveAspectRatio="xMidYMid meet">
<metadata>
Created by potrace 1.16, written by Peter Selinger 2001-2019
</metadata>
<g transform="translate(0.000000,512.000000) scale(0.100000,-0.100000)"
fill="#272727" stroke="none">
<path d="M715 4873 c-163 -22 -313 -120 -397 -259 -56 -93 -71 -146 -76 -274
-4 -105 -1 -123 22 -194 15 -42 43 -103 62 -134 23 -37 278 -299 720 -742 527
-528 684 -691 684 -710 0 -18 -157 -182 -683 -709 -486 -489 -691 -702 -715
-742 -189 -324 -61 -719 273 -841 93 -34 259 -37 360 -7 43 12 105 40 139 62
42 27 279 256 746 723 532 531 691 684 710 684 19 0 176 -151 700 -674 475
-474 694 -686 739 -715 318 -203 728 -76 853 264 16 45 23 90 26 175 4 105 2
123 -23 195 -14 44 -40 103 -57 130 -19 29 -321 340 -720 740 -529 531 -688
696 -688 715 0 18 158 183 683 709 486 489 691 702 715 742 163 279 95 614
-159 783 -90 59 -158 79 -289 84 -105 4 -123 2 -195 -23 -44 -14 -102 -40
-130 -57 -29 -19 -340 -321 -740 -720 -532 -530 -696 -688 -715 -688 -19 0
-182 157 -710 683 -509 507 -700 691 -744 717 -118 69 -264 100 -391 83z"/>
</g>
</svg>
