<?xml version="1.0" standalone="no"?>
<!DOCTYPE svg PUBLIC "-//W3C//DTD SVG 20010904//EN"
 "http://www.w3.org/TR/2001/REC-SVG-20010904/DTD/svg10.dtd">
<svg version="1.0" xmlns="http://www.w3.org/2000/svg"  viewBox="0 0 512.000000 512.000000"
 preserveAspectRatio="xMidYMid meet">
<metadata>
Created by potrace 1.16, written by Peter Selinger 2001-2019
</metadata>
<g transform="translate(0.000000,512.000000) scale(0.100000,-0.100000)"
fill="#ffa929" stroke="none">
<path d="M3768 4833 l-288 -288 533 -533 532 -532 288 288 287 288 0 60 c0 52
-4 67 -29 100 -34 46 -855 864 -891 888 -16 10 -46 16 -84 16 l-60 0 -288
-287z"/>
<path d="M2020 3085 l-1255 -1255 533 -532 532 -533 1255 1255 1255 1255 -533
533 -532 532 -1255 -1255z"/>
<path d="M592 1574 c-5 -11 -141 -326 -302 -702 -286 -668 -292 -684 -288
-738 4 -47 10 -61 41 -92 32 -31 43 -36 94 -39 57 -4 71 1 748 292 380 163
693 299 697 303 4 4 -215 230 -486 501 -432 432 -495 491 -504 475z"/>
</g>
</svg>
