<?xml version="1.0" standalone="no"?>
<!DOCTYPE svg PUBLIC "-//W3C//DTD SVG 20010904//EN"
 "http://www.w3.org/TR/2001/REC-SVG-20010904/DTD/svg10.dtd">
<svg version="1.0" xmlns="http://www.w3.org/2000/svg"
 viewBox="0 0 512.000000 512.000000"
 preserveAspectRatio="xMidYMid meet">
<metadata>
Created by potrace 1.16, written by Peter Selinger 2001-2019
</metadata>
<g transform="translate(0.000000,512.000000) scale(0.100000,-0.100000)"
fill="#1e1e1e" stroke="none">
<path d="M2591 4989 c-104 -41 -132 -80 -427 -592 l-269 -468 -30 6 c-16 3
-78 9 -137 12 -92 4 -117 2 -180 -17 -40 -12 -86 -29 -101 -37 -16 -8 -153
-108 -305 -222 -283 -213 -375 -296 -464 -421 -67 -95 -635 -1121 -658 -1190
-27 -81 -27 -224 0 -311 48 -158 175 -283 334 -331 39 -11 72 -22 74 -23 2 -1
-13 -30 -33 -64 -33 -55 -46 -106 -145 -553 -61 -271 -110 -506 -110 -523 0
-43 30 -96 69 -122 44 -29 123 -31 166 -4 17 10 141 117 276 237 135 121 253
225 261 232 15 12 19 10 31 -15 8 -15 37 -49 64 -76 109 -107 210 -149 359
-150 112 0 197 26 290 89 l65 43 52 -40 c62 -47 135 -76 225 -89 263 -37 510
137 563 398 11 50 16 61 29 56 53 -24 230 -79 315 -99 178 -42 308 -57 505
-57 258 0 439 26 670 96 l110 33 5 -36 c9 -54 35 -99 70 -121 31 -19 51 -20
396 -20 340 0 366 1 393 19 15 10 37 32 47 47 18 28 19 71 19 1284 0 1213 -1
1256 -19 1284 -10 15 -32 37 -47 47 -27 18 -53 19 -393 19 -342 0 -365 -1
-395 -19 -46 -29 -65 -70 -73 -155 l-6 -76 -88 0 -88 0 -598 311 c-329 171
-599 312 -601 314 -1 1 87 157 196 346 241 417 227 390 242 467 10 49 10 75 0
124 -24 124 -78 192 -214 272 -178 105 -191 109 -296 113 -78 3 -104 -1 -149
-18z m252 -345 c52 -30 98 -62 101 -71 4 -9 -30 -79 -85 -175 -88 -153 -92
-158 -113 -145 -11 7 -67 40 -123 72 -94 54 -101 60 -91 79 6 12 47 83 90 159
66 112 84 137 103 137 12 0 65 -25 118 -56z m-356 -603 c65 -37 117 -73 115
-80 -3 -15 -1132 -1972 -1147 -1989 -8 -9 -51 -12 -172 -10 l-161 3 589 1020
c324 561 603 1044 619 1073 17 28 32 52 34 52 2 0 57 -31 123 -69z m-1179
-1128 c-231 -401 -474 -821 -540 -936 -140 -242 -156 -259 -254 -265 -55 -4
-69 -1 -108 22 -77 45 -117 144 -91 226 10 31 546 996 600 1080 23 36 66 92
96 124 55 61 548 438 603 462 17 7 50 13 73 14 l41 0 -420 -727z m1989 165
l618 -322 138 -4 137 -4 0 -813 c0 -765 -1 -813 -17 -820 -109 -42 -270 -90
-368 -110 -436 -88 -849 -31 -1257 173 l-153 77 -690 5 c-767 6 -719 1 -783
74 -37 43 -56 104 -47 157 9 51 56 114 104 139 39 19 57 20 713 20 514 1 681
4 708 13 56 21 464 332 485 370 13 25 17 48 13 91 -4 50 -10 62 -42 94 -35 35
-39 37 -104 37 l-69 0 -196 -147 -197 -148 -236 0 c-205 0 -235 2 -230 15 5
15 725 1264 793 1378 22 36 40 56 49 53 7 -3 291 -150 631 -328z m1513 -1118
l0 -1050 -155 0 -155 0 0 1050 0 1050 155 0 155 0 0 -1050z m-3982 -946 c23
-10 42 -22 42 -26 0 -6 -313 -289 -316 -285 -1 1 21 104 49 229 l50 227 67
-63 c37 -35 86 -72 108 -82z m732 -131 c0 -113 -53 -187 -153 -214 -88 -24
-201 46 -227 140 -9 33 -8 45 5 66 8 14 22 36 30 50 l15 25 165 0 165 0 0 -67z
m700 0 c0 -113 -53 -187 -153 -214 -58 -15 -135 10 -180 60 -41 45 -57 93 -57
169 l0 52 195 0 195 0 0 -67z"/>
</g>
</svg>
