<?xml version="1.0" standalone="no"?>
<!DOCTYPE svg PUBLIC "-//W3C//DTD SVG 20010904//EN"
 "http://www.w3.org/TR/2001/REC-SVG-20010904/DTD/svg10.dtd">
<svg version="1.0" xmlns="http://www.w3.org/2000/svg"
 viewBox="0 0 512.000000 512.000000"
 preserveAspectRatio="xMidYMid meet">
<metadata>
Created by potrace 1.16, written by Peter Selinger 2001-2019
</metadata>
<g transform="translate(0.000000,512.000000) scale(0.100000,-0.100000)"
fill="#ff2929" stroke="none">
<path d="M2265 5109 c-487 -60 -917 -239 -1310 -547 -105 -82 -350 -334 -433
-444 -263 -351 -431 -743 -498 -1163 -22 -136 -30 -523 -14 -668 42 -393 183
-794 389 -1109 80 -122 115 -148 201 -148 96 0 171 63 186 156 9 56 -6 97 -79
212 -158 251 -263 536 -313 847 -25 153 -25 477 -1 630 41 253 105 453 214
668 249 490 662 865 1173 1063 558 215 1201 185 1740 -82 454 -225 784 -556
1005 -1009 107 -217 164 -402 202 -645 24 -157 24 -462 0 -620 -112 -731 -553
-1334 -1211 -1655 -320 -157 -594 -219 -956 -219 -272 0 -452 29 -710 114
-136 45 -377 166 -503 251 -145 100 -183 119 -235 119 -72 0 -147 -50 -171
-113 -6 -16 -11 -52 -11 -80 0 -75 29 -116 136 -192 356 -255 776 -415 1222
-466 156 -17 536 -7 688 20 315 54 608 159 864 308 716 419 1182 1133 1270
1950 16 145 8 533 -14 667 -69 425 -234 812 -498 1164 -99 132 -358 389 -493
490 -367 272 -786 442 -1225 497 -135 16 -493 19 -615 4z"/>
<path d="M1564 3641 c-79 -36 -117 -120 -100 -218 7 -33 56 -87 419 -450 l412
-413 -412 -412 c-449 -450 -432 -429 -420 -534 12 -110 143 -185 254 -144 15
6 211 194 436 418 l407 407 408 -407 c224 -224 420 -412 435 -418 67 -24 165
-2 208 46 46 53 62 137 39 201 -6 15 -194 211 -418 436 l-407 407 407 408
c224 224 412 420 418 435 16 44 12 119 -9 157 -28 52 -82 91 -135 97 -105 12
-84 29 -534 -420 l-412 -412 -403 402 c-221 220 -416 408 -434 417 -42 21
-108 20 -159 -3z"/>
</g>
</svg>
